<svg width="56" height="56" viewBox="0 0 56 56" fill="none" xmlns="http://www.w3.org/2000/svg">
<path fill-rule="evenodd" clip-rule="evenodd" d="M46.375 19.25C46.375 15.8672 43.6328 13.125 40.25 13.125C33.642 13.125 22.358 13.125 15.75 13.125C12.3672 13.125 9.625 15.8672 9.625 19.25C9.625 25.0758 9.625 34.4242 9.625 40.25C9.625 43.6327 12.3672 46.375 15.75 46.375C22.358 46.375 33.642 46.375 40.25 46.375C43.6328 46.375 46.375 43.6327 46.375 40.25V19.25ZM44.625 19.25C44.625 16.8333 42.6668 14.875 40.25 14.875C33.642 14.875 22.358 14.875 15.75 14.875C13.3333 14.875 11.375 16.8333 11.375 19.25C11.375 25.0758 11.375 34.4242 11.375 40.25C11.375 42.6667 13.3333 44.625 15.75 44.625C22.358 44.625 33.642 44.625 40.25 44.625C42.6668 44.625 44.625 42.6667 44.625 40.25V19.25Z" fill="#0077C8"/>
<path fill-rule="evenodd" clip-rule="evenodd" d="M18.375 10.5V17.5C18.375 17.983 18.767 18.375 19.25 18.375C19.733 18.375 20.125 17.983 20.125 17.5V10.5C20.125 10.017 19.733 9.625 19.25 9.625C18.767 9.625 18.375 10.017 18.375 10.5Z" fill="#0077C8"/>
<path fill-rule="evenodd" clip-rule="evenodd" d="M10.5 25.375H45.5V23.625H10.5V25.375Z" fill="#0077C8"/>
<path fill-rule="evenodd" clip-rule="evenodd" d="M35.875 10.5V17.5C35.875 17.983 36.267 18.375 36.75 18.375C37.233 18.375 37.625 17.983 37.625 17.5V10.5C37.625 10.017 37.233 9.625 36.75 9.625C36.267 9.625 35.875 10.017 35.875 10.5Z" fill="#0077C8"/>
<path fill-rule="evenodd" clip-rule="evenodd" d="M18.375 28.875C17.409 28.875 16.625 29.659 16.625 30.625C16.625 31.591 17.409 32.375 18.375 32.375C19.341 32.375 20.125 31.591 20.125 30.625C20.125 29.659 19.341 28.875 18.375 28.875Z" fill="#0077C8"/>
<path fill-rule="evenodd" clip-rule="evenodd" d="M28 28.875C27.034 28.875 26.25 29.659 26.25 30.625C26.25 31.591 27.034 32.375 28 32.375C28.966 32.375 29.75 31.591 29.75 30.625C29.75 29.659 28.966 28.875 28 28.875Z" fill="#0077C8"/>
<path fill-rule="evenodd" clip-rule="evenodd" d="M37.625 28.875C36.659 28.875 35.875 29.659 35.875 30.625C35.875 31.591 36.659 32.375 37.625 32.375C38.591 32.375 39.375 31.591 39.375 30.625C39.375 29.659 38.591 28.875 37.625 28.875Z" fill="#0077C8"/>
<path fill-rule="evenodd" clip-rule="evenodd" d="M37.625 37.4885C36.659 37.4885 35.875 38.2725 35.875 39.2385C35.875 40.2045 36.659 40.9885 37.625 40.9885C38.591 40.9885 39.375 40.2045 39.375 39.2385C39.375 38.2725 38.591 37.4885 37.625 37.4885Z" fill="#0077C8"/>
<path fill-rule="evenodd" clip-rule="evenodd" d="M28 37.4885C27.034 37.4885 26.25 38.2725 26.25 39.2385C26.25 40.2045 27.034 40.9885 28 40.9885C28.966 40.9885 29.75 40.2045 29.75 39.2385C29.75 38.2725 28.966 37.4885 28 37.4885Z" fill="#0077C8"/>
<path fill-rule="evenodd" clip-rule="evenodd" d="M18.375 37.4885C17.409 37.4885 16.625 38.2725 16.625 39.2385C16.625 40.2045 17.409 40.9885 18.375 40.9885C19.341 40.9885 20.125 40.2045 20.125 39.2385C20.125 38.2725 19.341 37.4885 18.375 37.4885Z" fill="#0077C8"/>
</svg>
