<svg width="54" height="54" viewBox="0 0 54 54" fill="none" xmlns="http://www.w3.org/2000/svg">
<path d="M53.271 17.7344L27.9585 0.296903C27.6767 0.103511 27.3429 0 27.0011 0C26.6593 0 26.3256 0.103511 26.0437 0.296903L0.73125 17.7344C0.505599 17.8894 0.32109 18.097 0.19368 18.3392C0.0662698 18.5815 -0.000206244 18.8512 4.80676e-07 19.1249V51.7499C4.80676e-07 52.3466 0.237053 52.9189 0.65901 53.3409C1.08097 53.7629 1.65326 53.9999 2.25 53.9999H6.75V26.9999C6.75 26.4032 6.98705 25.8309 7.40901 25.4089C7.83097 24.987 8.40326 24.7499 9 24.7499H45C45.5967 24.7499 46.169 24.987 46.591 25.4089C47.0129 25.8309 47.25 26.4032 47.25 26.9999V53.9999H51.75C52.3467 53.9999 52.919 53.7629 53.341 53.3409C53.7629 52.9189 54 52.3466 54 51.7499V19.1249C54.0003 18.8514 53.9341 18.5819 53.8071 18.3397C53.6801 18.0975 53.4961 17.8898 53.271 17.7344Z" fill="#0077C8"/>
<path d="M20.8125 42.75V44.4375C20.8125 44.8851 20.6347 45.3143 20.3182 45.6307C20.0018 45.9472 19.5726 46.125 19.125 46.125C18.6774 46.125 18.2482 45.9472 17.9318 45.6307C17.6153 45.3143 17.4375 44.8851 17.4375 44.4375V42.75H13.5C13.2016 42.75 12.9155 42.8685 12.7045 43.0795C12.4935 43.2905 12.375 43.5766 12.375 43.875V52.875C12.375 53.1734 12.4935 53.4595 12.7045 53.6705C12.9155 53.8815 13.2016 54 13.5 54H24.75C25.0484 54 25.3345 53.8815 25.5455 53.6705C25.7565 53.4595 25.875 53.1734 25.875 52.875V43.875C25.875 43.5766 25.7565 43.2905 25.5455 43.0795C25.3345 42.8685 25.0484 42.75 24.75 42.75H20.8125ZM36.5625 42.75V44.4375C36.5625 44.8851 36.3847 45.3143 36.0682 45.6307C35.7518 45.9472 35.3226 46.125 34.875 46.125C34.4275 46.125 33.9982 45.9472 33.6818 45.6307C33.3653 45.3143 33.1875 44.8851 33.1875 44.4375V42.75H29.25C28.9516 42.75 28.6655 42.8685 28.4545 43.0795C28.2435 43.2905 28.125 43.5766 28.125 43.875V52.875C28.125 53.1734 28.2435 53.4595 28.4545 53.6705C28.6655 53.8815 28.9516 54 29.25 54H40.5C40.7984 54 41.0845 53.8815 41.2955 53.6705C41.5065 53.4595 41.625 53.1734 41.625 52.875V43.875C41.625 43.5766 41.5065 43.2905 41.2955 43.0795C41.0845 42.8685 40.7984 42.75 40.5 42.75H36.5625ZM28.6875 29.25V30.9375C28.6875 31.3851 28.5097 31.8143 28.1932 32.1307C27.8768 32.4472 27.4476 32.625 27 32.625C26.5524 32.625 26.1232 32.4472 25.8068 32.1307C25.4903 31.8143 25.3125 31.3851 25.3125 30.9375V29.25H21.375C21.0766 29.25 20.7905 29.3685 20.5795 29.5795C20.3685 29.7905 20.25 30.0766 20.25 30.375V39.375C20.25 39.6734 20.3685 39.9595 20.5795 40.1705C20.7905 40.3815 21.0766 40.5 21.375 40.5H32.625C32.9234 40.5 33.2095 40.3815 33.4205 40.1705C33.6315 39.9595 33.75 39.6734 33.75 39.375V30.375C33.75 30.0766 33.6315 29.7905 33.4205 29.5795C33.2095 29.3685 32.9234 29.25 32.625 29.25H28.6875Z" fill="#95D3FD"/>
<path d="M26.396 9.45766C26.7532 9.18702 27.2468 9.18702 27.604 9.45766L38.485 17.703C39.2489 18.2819 38.8395 19.5 37.881 19.5H16.119C15.1605 19.5 14.7511 18.2819 15.515 17.703L26.396 9.45766Z" fill="#95D3FD"/>
</svg>
