<svg width="77" height="65" viewBox="0 0 77 65" fill="none" xmlns="http://www.w3.org/2000/svg">
<circle cx="26.5" cy="26.5" r="26.5" fill="white"/>
<path d="M11.9805 18.2584C13.0703 15.9874 14.6102 14.0678 16.5508 12.4717C19.1805 10.2991 22.1969 8.99126 25.5789 8.59048C29.5516 8.11939 33.2852 8.87173 36.7375 10.9389C37.5953 11.4522 38.3969 12.0358 39.1633 12.6686C39.3531 12.8233 39.332 12.9147 39.1703 13.0694C37.6023 14.6303 36.0344 16.1913 34.4805 17.7663C34.2977 17.9491 34.1992 17.935 34.0023 17.7874C29.4461 14.2788 22.8016 15.228 19.4055 19.8686C18.8078 20.6842 18.3227 21.5631 17.9852 22.5194C17.957 22.6038 17.9008 22.6811 17.8586 22.7655C16.9516 22.0764 16.0375 21.3874 15.1375 20.6913C14.0828 19.8827 13.0281 19.0741 11.9805 18.2584Z" fill="#E94335"/>
<path d="M17.8598 29.3613C18.1621 30.0293 18.4152 30.7254 18.7949 31.3512C20.391 33.9668 22.6691 35.6473 25.6715 36.2449C28.3785 36.7863 30.9801 36.4207 33.4059 35.0637C33.4902 35.0215 33.5746 34.9793 33.652 34.9371C33.6941 34.9793 33.7293 35.0285 33.7715 35.0637C35.5855 36.4699 37.4066 37.8762 39.2207 39.2824C38.3488 40.1473 37.3574 40.8434 36.3027 41.448C33.2441 43.1918 29.9324 43.8949 26.4449 43.6277C22.0996 43.2902 18.352 41.5746 15.2582 38.4809C13.9012 37.1238 12.7832 35.591 11.9746 33.8402C12.727 33.2637 13.4793 32.6941 14.2316 32.1176C15.441 31.1965 16.6504 30.2824 17.8598 29.3613Z" fill="#34A853"/>
<path d="M39.227 39.2818C37.413 37.8755 35.5919 36.4693 33.7778 35.063C33.7356 35.0279 33.6934 34.9787 33.6583 34.9365C34.2841 34.4513 34.9239 33.9802 35.4372 33.3615C36.295 32.3349 36.8645 31.1748 37.1598 29.874C37.195 29.7123 37.1669 29.656 37.0052 29.663C36.9208 29.6701 36.8434 29.663 36.7591 29.663C33.8903 29.663 31.0145 29.656 28.1458 29.6701C27.8294 29.6701 27.7591 29.5857 27.7661 29.2834C27.7802 27.2443 27.7802 25.2052 27.7661 23.1662C27.7661 22.906 27.8364 22.8357 28.0966 22.8357C33.3559 22.8427 38.6153 22.8427 43.8817 22.8357C44.1067 22.8357 44.1981 22.8919 44.2544 23.131C44.6833 25.0646 44.6552 27.0052 44.395 28.9599C44.1841 30.5209 43.8044 32.0326 43.2208 33.4951C42.3559 35.6537 41.0833 37.538 39.4098 39.1552C39.3466 39.2044 39.2833 39.2396 39.227 39.2818Z" fill="#4285F3"/>
<path d="M17.859 29.3607C16.6496 30.2818 15.4403 31.1958 14.2309 32.1169C13.4785 32.6865 12.7262 33.263 11.9739 33.8396C11.3903 32.7568 11.0106 31.6107 10.7012 30.4294C10.1106 28.1443 10.0192 25.824 10.3426 23.4966C10.5957 21.6685 11.1231 19.9107 11.9739 18.2654C13.0285 19.074 14.0762 19.8896 15.1309 20.6982C16.0379 21.3943 16.945 22.0834 17.852 22.7724C17.6973 23.5248 17.4793 24.263 17.409 25.0365C17.2825 26.4427 17.416 27.8138 17.8168 29.1638C17.845 29.2201 17.852 29.2904 17.859 29.3607Z" fill="#FABB06"/>
<g filter="url(#filter0_d_244_284)">
<rect x="38" y="39" width="37" height="20" rx="6" fill="white"/>
</g>
<path d="M53.2201 53.0216H53.3394C53.8417 53.0216 54.2727 52.9609 54.6327 52.8396C54.9968 52.714 55.296 52.534 55.5304 52.2997C55.7648 52.0653 55.9385 51.7786 56.0515 51.4396C56.1645 51.0964 56.221 50.7072 56.221 50.2719V48.5392C56.221 48.2086 56.1875 47.9177 56.1205 47.6666C56.0578 47.4155 55.9657 47.2083 55.8443 47.0451C55.7271 46.8777 55.589 46.7521 55.43 46.6684C55.2751 46.5847 55.1035 46.5428 54.9152 46.5428C54.7143 46.5428 54.5364 46.5931 54.3816 46.6935C54.2267 46.7898 54.0949 46.9216 53.986 47.089C53.8814 47.2564 53.7998 47.4489 53.7412 47.6666C53.6868 47.88 53.6596 48.1039 53.6596 48.3383C53.6596 48.5727 53.6868 48.7966 53.7412 49.01C53.7956 49.2193 53.8772 49.4056 53.986 49.5688C54.0949 49.7278 54.2309 49.8555 54.3941 49.9517C54.5573 50.0438 54.7499 50.0898 54.9717 50.0898C55.1851 50.0898 55.3756 50.0501 55.543 49.9706C55.7146 49.8869 55.859 49.778 55.9761 49.6441C56.0975 49.5102 56.1896 49.3616 56.2524 49.1984C56.3193 49.0352 56.3528 48.8698 56.3528 48.7024L56.9492 49.0289C56.9492 49.3218 56.8864 49.6106 56.7609 49.8952C56.6353 50.1798 56.4595 50.4393 56.2335 50.6737C56.0117 50.9039 55.7543 51.088 55.4614 51.2261C55.1684 51.3643 54.8545 51.4333 54.5197 51.4333C54.0928 51.4333 53.714 51.3559 53.3834 51.201C53.0527 51.042 52.7723 50.8244 52.5421 50.5481C52.3161 50.2677 52.1445 49.9413 52.0273 49.5688C51.9102 49.1963 51.8516 48.7924 51.8516 48.3571C51.8516 47.9135 51.9227 47.4971 52.065 47.1078C52.2115 46.7186 52.4187 46.3754 52.6865 46.0783C52.9586 45.7811 53.2829 45.5488 53.6596 45.3814C54.0405 45.2098 54.4632 45.124 54.9277 45.124C55.3923 45.124 55.815 45.214 56.1959 45.394C56.5767 45.5739 56.9032 45.8292 57.1752 46.1599C57.4473 46.4863 57.6565 46.8777 57.803 47.3338C57.9537 47.79 58.029 48.2965 58.029 48.8531V49.4809C58.029 50.0752 57.9641 50.6277 57.8344 51.1383C57.7088 51.6489 57.5184 52.1113 57.2631 52.5257C57.012 52.9358 56.6981 53.2874 56.3214 53.5804C55.9489 53.8733 55.5158 54.0972 55.0219 54.2521C54.528 54.4069 53.9756 54.4844 53.3645 54.4844H53.2201V53.0216Z" fill="black"/>
<path d="M48.3711 53.5237C48.3711 53.2559 48.4632 53.0319 48.6473 52.852C48.8357 52.672 49.0847 52.582 49.3944 52.582C49.7041 52.582 49.951 52.672 50.1352 52.852C50.3235 53.0319 50.4177 53.2559 50.4177 53.5237C50.4177 53.7916 50.3235 54.0155 50.1352 54.1955C49.951 54.3754 49.7041 54.4654 49.3944 54.4654C49.0847 54.4654 48.8357 54.3754 48.6473 54.1955C48.4632 54.0155 48.3711 53.7916 48.3711 53.5237Z" fill="black"/>
<path d="M47.23 50.9813V52.4001H40.6445L40.5566 51.3015L44.3673 45.2559H45.805L44.248 47.8612L42.3521 50.9813H47.23ZM46.1942 45.2559V54.3965H44.3862V45.2559H46.1942Z" fill="black"/>
<path d="M65.3574 44.5557L66.8563 47.4927L70.1127 48.0106L67.7826 50.3437L68.2963 53.6007L65.3574 52.1057L62.4185 53.6007L62.9322 50.3437L60.6021 48.0106L63.8586 47.4927L65.3574 44.5557Z" fill="#EFBA00"/>
<defs>
<filter id="filter0_d_244_284" x="36" y="39" width="41" height="26" filterUnits="userSpaceOnUse" color-interpolation-filters="sRGB">
<feFlood flood-opacity="0" result="BackgroundImageFix"/>
<feColorMatrix in="SourceAlpha" type="matrix" values="0 0 0 0 0 0 0 0 0 0 0 0 0 0 0 0 0 0 127 0" result="hardAlpha"/>
<feOffset dy="4"/>
<feGaussianBlur stdDeviation="1"/>
<feComposite in2="hardAlpha" operator="out"/>
<feColorMatrix type="matrix" values="0 0 0 0 0 0 0 0 0 0 0 0 0 0 0 0 0 0 0.04 0"/>
<feBlend mode="normal" in2="BackgroundImageFix" result="effect1_dropShadow_244_284"/>
<feBlend mode="normal" in="SourceGraphic" in2="effect1_dropShadow_244_284" result="shape"/>
</filter>
</defs>
</svg>
