<svg width="53" height="70" viewBox="0 0 53 70" fill="none" xmlns="http://www.w3.org/2000/svg">
<path d="M37.5745 0H1.80323C0.807325 0 0 0.807325 0 2.37391V67.7907C0 68.2159 0.807325 69.0232 1.80323 69.0232H51.1968C52.1927 69.0232 53 68.2159 53 67.7907V15.9961C53 15.1383 52.8854 14.8622 52.6832 14.6588L38.3412 0.316767C38.1374 0.114226 37.8619 0.000376914 37.5745 0Z" fill="#CCEAFF"/>
<path d="M38.209 0.186523V14.7911H52.8136L38.209 0.186523Z" fill="#A9D5F4"/>
<path d="M16.0405 41.0739C15.6116 41.0739 15.1999 40.9346 14.8486 40.6721C13.5655 39.7095 13.393 38.6384 13.4743 37.9087C13.6987 35.9021 16.1798 33.8018 20.8512 31.6621C22.705 27.5996 24.4687 22.5942 25.5201 18.4121C24.29 15.735 23.0944 12.2616 23.9659 10.2242C24.2715 9.51056 24.6524 8.9633 25.3636 8.72665C25.7724 8.61225 26.1922 8.5412 26.6159 8.51465C27.2371 8.51465 27.7831 9.31458 28.1701 9.8076C28.5337 10.271 29.3583 11.2534 27.7104 18.1915C29.3719 21.6229 31.726 25.1184 33.9816 27.5121C35.5975 27.2199 36.9878 27.0708 38.1206 27.0708C40.0507 27.0708 41.2204 27.5207 41.6974 28.4476C42.0919 29.2142 41.9304 30.1103 41.2167 31.1099C40.5302 32.0701 39.5836 32.5779 38.4805 32.5779C36.9817 32.5779 35.2364 31.6313 33.2902 29.7615C29.7934 30.4924 25.7099 31.7964 22.4091 33.2398C21.3787 35.4263 20.3914 37.1876 19.472 38.4794C18.2086 40.2481 17.119 41.0739 16.0405 41.0739ZM19.3216 34.7558C16.6876 36.2361 15.614 37.4526 15.5364 38.1379C15.5241 38.2513 15.4908 38.5496 16.0676 38.9909C16.2513 38.9329 17.3236 38.4436 19.3216 34.7558ZM36.13 29.2808C37.1345 30.0536 37.3798 30.4443 38.0367 30.4443C38.3252 30.4443 39.1473 30.432 39.5281 29.9008C39.7118 29.6432 39.7833 29.478 39.8116 29.3893C39.66 29.3091 39.4591 29.1464 38.3634 29.1464C37.7409 29.1477 36.9583 29.1748 36.13 29.2808ZM26.9228 21.1681C26 24.3352 24.8997 27.4478 23.6269 30.4912C26.2361 29.4803 28.9112 28.6485 31.6336 28.0014C29.9697 26.0687 28.3069 23.6554 26.9228 21.1681ZM26.1746 10.7382C26.0538 10.7789 24.5353 12.9038 26.2929 14.7021C27.4626 12.0952 26.2276 10.7209 26.1746 10.7382ZM51.1968 69.0234H1.80323C1.32499 69.0234 0.866326 68.8334 0.528154 68.4952C0.189983 68.1571 0 67.6984 0 67.2201V48.0699H53V67.2201C53 68.2161 52.1927 69.0234 51.1968 69.0234Z" fill="#0077C8"/>
<path d="M13.4162 65.3255H11.3936V52.9062H14.9655C15.493 52.9062 16.0156 52.9901 16.5321 53.1589C17.0485 53.3278 17.512 53.5805 17.9224 53.9169C18.3329 54.2534 18.6644 54.6614 18.9171 55.1384C19.1698 55.6154 19.2967 56.1516 19.2967 56.7481C19.2967 57.378 19.1895 57.9474 18.9763 58.4589C18.7775 58.9495 18.4723 59.3899 18.0826 59.7482C17.7006 60.0958 17.2396 60.3657 16.7009 60.5567C16.1623 60.7478 15.5658 60.8427 14.915 60.8427H13.415L13.4162 65.3255ZM13.4162 54.4396V59.3599H15.2699C15.5165 59.3599 15.7605 59.318 16.0033 59.233C16.2449 59.1492 16.4668 59.0111 16.6689 58.8201C16.871 58.629 17.0337 58.3628 17.157 58.0201C17.2803 57.6775 17.3419 57.2535 17.3419 56.7481C17.3419 56.546 17.3135 56.3118 17.2581 56.0493C17.197 55.7753 17.0795 55.5172 16.9129 55.2913C16.7197 55.0342 16.4684 54.8264 16.1796 54.6848C15.8653 54.5221 15.4487 54.4408 14.9322 54.4408L13.4162 54.4396ZM31.6999 58.7708C31.6999 59.7926 31.5902 60.6664 31.3709 61.3912C31.1515 62.1159 30.8741 62.7223 30.5364 63.2117C30.1987 63.701 29.8203 64.0856 29.3988 64.3666C28.9772 64.6476 28.5705 64.8571 28.1773 64.9989C27.8288 65.1283 27.4671 65.2188 27.0988 65.2688C26.7734 65.3058 26.5318 65.3255 26.3741 65.3255H21.6731V52.9062H25.4139C26.4591 52.9062 27.3774 53.0726 28.1687 53.403C28.96 53.7333 29.6182 54.1758 30.1408 54.7255C30.6634 55.2752 31.0529 55.9026 31.3117 56.6039C31.5705 57.3065 31.6999 58.0288 31.6999 58.7708ZM25.7011 63.8427C27.0717 63.8427 28.0602 63.4052 28.6666 62.5288C29.273 61.6525 29.5762 60.3829 29.5762 58.7202C29.5762 58.2038 29.5146 57.6923 29.3914 57.1869C29.2669 56.6816 29.029 56.2243 28.6752 55.8139C28.3215 55.4034 27.8408 55.0719 27.2344 54.8192C26.628 54.5665 25.8416 54.4396 24.8753 54.4396H23.6957V63.8427H25.7011ZM36.6881 54.4396V58.3492H41.8784V59.7309H36.6881V65.3255H34.6322V52.9062H42.3998V54.4396H36.6881Z" fill="white"/>
<path d="M6 7H33L49 41L6 42V7Z" fill="#CCEAFF"/>
<path d="M36.8613 30.6467C36.6017 30.3868 36.2859 30.2568 35.9148 30.2568H29.4545L27.561 32.1502C27.0227 32.6699 26.3916 32.9299 25.6676 32.9299C24.9438 32.9299 24.3125 32.6703 23.7741 32.1502L21.8946 30.2568H15.4205C15.0493 30.2568 14.7338 30.387 14.4738 30.6467C14.2139 30.9065 14.084 31.2221 14.084 31.5935V36.0486C14.084 36.4199 14.2139 36.7355 14.4738 36.9953C14.7337 37.2552 15.0493 37.385 15.4205 37.385H35.9148C36.2859 37.385 36.6017 37.2552 36.8614 36.9953C37.1214 36.7355 37.2512 36.4199 37.2512 36.0486V31.5935C37.2512 31.2221 37.1214 30.9065 36.8613 30.6467ZM31.6406 35.3385C31.464 35.5149 31.2551 35.603 31.0138 35.603C30.7725 35.603 30.5638 35.5149 30.3873 35.3385C30.2111 35.1622 30.123 34.9534 30.123 34.7122C30.123 34.4709 30.2111 34.2618 30.3873 34.0857C30.5638 33.9092 30.7725 33.8209 31.0138 33.8209C31.2551 33.8209 31.464 33.9092 31.6406 34.0857C31.8168 34.2618 31.905 34.4709 31.905 34.7122C31.905 34.9534 31.8168 35.1622 31.6406 35.3385ZM35.2046 35.3385C35.0283 35.5149 34.8194 35.603 34.578 35.603C34.3367 35.603 34.128 35.5149 33.9516 35.3385C33.7754 35.1622 33.6872 34.9534 33.6872 34.7122C33.6872 34.4709 33.7754 34.2618 33.9516 34.0857C34.1279 33.9092 34.3367 33.8209 34.578 33.8209C34.8194 33.8209 35.0283 33.9092 35.2046 34.0857C35.381 34.2618 35.4692 34.4709 35.4692 34.7122C35.4692 34.9534 35.3811 35.1622 35.2046 35.3385Z" fill="#0077C8"/>
<path d="M25.0406 30.8835C25.2078 31.0597 25.4166 31.1479 25.6671 31.1479C25.9178 31.1479 26.1264 31.0597 26.2936 30.8835L32.531 24.6461C32.8187 24.377 32.8838 24.052 32.7259 23.6715C32.5684 23.3096 32.2945 23.1286 31.9045 23.1284H28.3402V16.8911C28.3402 16.6498 28.2519 16.4409 28.0759 16.2646C27.8994 16.0882 27.6906 16 27.4494 16H23.8849C23.6437 16 23.4348 16.0882 23.2584 16.2646C23.0821 16.4409 22.9939 16.6497 22.9939 16.8911V23.1285H19.4297C19.0397 23.1285 18.766 23.3096 18.6082 23.6715C18.4505 24.0519 18.5154 24.377 18.8032 24.6461L25.0406 30.8835Z" fill="#0077C8"/>
</svg>
