<svg width="83" height="15" viewBox="0 0 83 15" fill="none" xmlns="http://www.w3.org/2000/svg">
<path d="M7.05464 0.872681C7.24021 0.509055 7.75979 0.509054 7.94536 0.87268L9.63266 4.17895C9.70531 4.32131 9.84164 4.42036 9.99948 4.44546L13.6653 5.02848C14.0685 5.09261 14.2291 5.58675 13.9406 5.87561L11.3175 8.50202C11.2046 8.6151 11.1525 8.77537 11.1774 8.93324L11.7557 12.5998C11.8193 13.0031 11.399 13.3085 11.0351 13.1234L7.72671 11.4403C7.58426 11.3679 7.41574 11.3679 7.27329 11.4403L3.96486 13.1234C3.601 13.3085 3.18065 13.0031 3.24426 12.5998L3.82258 8.93324C3.84748 8.77537 3.79541 8.6151 3.68247 8.50202L1.05942 5.87561C0.770938 5.58675 0.931494 5.09261 1.33467 5.02849L5.00052 4.44546C5.15836 4.42036 5.29469 4.32131 5.36734 4.17895L7.05464 0.872681Z" fill="#EFBA00"/>
<path d="M24.0546 0.872681C24.2402 0.509055 24.7598 0.509054 24.9454 0.87268L26.6327 4.17895C26.7053 4.32131 26.8416 4.42036 26.9995 4.44546L30.6653 5.02848C31.0685 5.09261 31.2291 5.58675 30.9406 5.87561L28.3175 8.50202C28.2046 8.6151 28.1525 8.77537 28.1774 8.93324L28.7557 12.5998C28.8193 13.0031 28.399 13.3085 28.0351 13.1234L24.7267 11.4403C24.5843 11.3679 24.4157 11.3679 24.2733 11.4403L20.9649 13.1234C20.601 13.3085 20.1807 13.0031 20.2443 12.5998L20.8226 8.93324C20.8475 8.77537 20.7954 8.6151 20.6825 8.50202L18.0594 5.87561C17.7709 5.58675 17.9315 5.09261 18.3347 5.02849L22.0005 4.44546C22.1584 4.42036 22.2947 4.32131 22.3673 4.17895L24.0546 0.872681Z" fill="#EFBA00"/>
<path d="M41.0546 0.872681C41.2402 0.509055 41.7598 0.509054 41.9454 0.87268L43.6327 4.17895C43.7053 4.32131 43.8416 4.42036 43.9995 4.44546L47.6653 5.02848C48.0685 5.09261 48.2291 5.58675 47.9406 5.87561L45.3175 8.50202C45.2046 8.6151 45.1525 8.77537 45.1774 8.93324L45.7557 12.5998C45.8193 13.0031 45.399 13.3085 45.0351 13.1234L41.7267 11.4403C41.5843 11.3679 41.4157 11.3679 41.2733 11.4403L37.9649 13.1234C37.601 13.3085 37.1807 13.0031 37.2443 12.5998L37.8226 8.93324C37.8475 8.77537 37.7954 8.6151 37.6825 8.50202L35.0594 5.87561C34.7709 5.58675 34.9315 5.09261 35.3347 5.02849L39.0005 4.44546C39.1584 4.42036 39.2947 4.32131 39.3673 4.17895L41.0546 0.872681Z" fill="#EFBA00"/>
<path d="M58.0546 0.872681C58.2402 0.509055 58.7598 0.509054 58.9454 0.87268L60.6327 4.17895C60.7053 4.32131 60.8416 4.42036 60.9995 4.44546L64.6653 5.02848C65.0685 5.09261 65.2291 5.58675 64.9406 5.87561L62.3175 8.50202C62.2046 8.6151 62.1525 8.77537 62.1774 8.93324L62.7557 12.5998C62.8193 13.0031 62.399 13.3085 62.0351 13.1234L58.7267 11.4403C58.5843 11.3679 58.4157 11.3679 58.2733 11.4403L54.9649 13.1234C54.601 13.3085 54.1807 13.0031 54.2443 12.5998L54.8226 8.93324C54.8475 8.77537 54.7954 8.6151 54.6825 8.50202L52.0594 5.87561C51.7709 5.58675 51.9315 5.09261 52.3347 5.02849L56.0005 4.44546C56.1584 4.42036 56.2947 4.32131 56.3673 4.17895L58.0546 0.872681Z" fill="#D8D8D8"/>
<path d="M75.0546 0.872681C75.2402 0.509055 75.7598 0.509054 75.9454 0.87268L77.6327 4.17895C77.7053 4.32131 77.8416 4.42036 77.9995 4.44546L81.6653 5.02848C82.0685 5.09261 82.2291 5.58675 81.9406 5.87561L79.3175 8.50202C79.2046 8.6151 79.1525 8.77537 79.1774 8.93324L79.7557 12.5998C79.8193 13.0031 79.399 13.3085 79.0351 13.1234L75.7267 11.4403C75.5843 11.3679 75.4157 11.3679 75.2733 11.4403L71.9649 13.1234C71.601 13.3085 71.1807 13.0031 71.2443 12.5998L71.8226 8.93324C71.8475 8.77537 71.7954 8.6151 71.6825 8.50202L69.0594 5.87561C68.7709 5.58675 68.9315 5.09261 69.3347 5.02849L73.0005 4.44546C73.1584 4.42036 73.2947 4.32131 73.3673 4.17895L75.0546 0.872681Z" fill="#D8D8D8"/>
</svg>
