<svg width="51" height="51" viewBox="0 0 51 51" fill="none" xmlns="http://www.w3.org/2000/svg">
<g clip-path="url(#clip0_168_845)">
<path d="M45.1476 29.2513C47.2195 18.4004 40.1027 7.92439 29.2518 5.85251C18.4009 3.78062 7.92492 10.8974 5.85304 21.7483C3.78116 32.5992 10.898 43.0752 21.7489 45.1471C32.5998 47.219 43.0758 40.1022 45.1476 29.2513Z" fill="white"/>
<path d="M49.9834 22.742C49.5121 22.19 49.1902 21.5264 49.0486 20.8145C48.907 20.1027 48.9504 19.3664 49.1746 18.6761C49.4862 17.7148 49.4451 16.674 49.0588 15.7402C48.6725 14.8064 47.9662 14.0408 47.0666 13.5805C46.4194 13.2511 45.8675 12.7612 45.4637 12.1577C45.0598 11.5542 44.8174 10.8573 44.7596 10.1334C44.6797 9.12622 44.2434 8.18052 43.529 7.4661C42.8146 6.75169 41.8689 6.31536 40.8617 6.23547C40.1381 6.17899 39.441 5.93759 38.8374 5.53442C38.2338 5.13125 37.7439 4.57981 37.4146 3.93295C36.9565 3.03241 36.1918 2.32513 35.2583 1.93861C34.3249 1.55209 33.284 1.51176 32.3234 1.82489C31.6331 2.04913 30.8968 2.09252 30.185 1.95092C29.4731 1.80932 28.8095 1.48747 28.2576 1.01614C27.4887 0.359677 26.5108 -0.000976562 25.4998 -0.000976562C24.4888 -0.000976562 23.511 0.359677 22.7421 1.01614C22.1902 1.48747 21.5266 1.80932 20.8147 1.95092C20.1028 2.09252 19.3666 2.04913 18.6763 1.82489C17.7157 1.51176 16.6748 1.55209 15.7413 1.93861C14.8079 2.32513 14.0432 3.03241 13.5851 3.93295C13.2558 4.57981 12.7659 5.13125 12.1623 5.53442C11.5587 5.93759 10.8616 6.17899 10.138 6.23547C9.1308 6.31536 8.1851 6.75169 7.47069 7.4661C6.75627 8.18052 6.31994 9.12622 6.24005 10.1334C6.1823 10.8573 5.93991 11.5542 5.53603 12.1577C5.13215 12.7612 4.58027 13.2511 3.93312 13.5805C3.03349 14.0408 2.32721 14.8064 1.94091 15.7402C1.5546 16.674 1.51353 17.7148 1.82506 18.6761C2.04929 19.3664 2.09268 20.1027 1.95109 20.8145C1.80949 21.5264 1.48764 22.19 1.01631 22.742C0.359331 23.5097 -0.00170898 24.487 -0.00170898 25.4975C-0.00170898 26.508 0.359331 27.4852 1.01631 28.253C1.48764 28.8058 1.80945 29.4702 1.95103 30.1827C2.09261 30.8953 2.04924 31.6322 1.82506 32.3233C1.51141 33.2851 1.55143 34.3273 1.93789 35.2623C2.32436 36.1973 3.03189 36.9636 3.93312 37.4233C4.58001 37.753 5.13166 38.243 5.53549 38.8464C5.93933 39.4498 6.18189 40.1466 6.24005 40.8704C6.31907 41.8779 6.75511 42.8241 7.4697 43.5387C8.18429 44.2533 9.13049 44.6893 10.138 44.7683C10.8614 44.8256 11.5581 45.0674 12.1615 45.4704C12.765 45.8735 13.2551 46.4245 13.5851 47.0708C14.0438 47.9709 14.8083 48.678 15.7414 49.0652C16.6745 49.4524 17.7151 49.4942 18.6763 49.1833C19.3664 48.9578 20.103 48.9137 20.8151 49.0554C21.5272 49.197 22.1908 49.5196 22.7421 49.9921C23.5118 50.6468 24.4893 51.0064 25.4998 51.0064C26.5104 51.0064 27.4879 50.6468 28.2576 49.9921C28.8089 49.5196 29.4725 49.197 30.1846 49.0554C30.8967 48.9137 31.6333 48.9578 32.3234 49.1833C33.2846 49.4942 34.3252 49.4524 35.2582 49.0652C36.1913 48.678 36.9559 47.9709 37.4146 47.0708C37.7446 46.4245 38.2347 45.8735 38.8381 45.4704C39.4416 45.0674 40.1383 44.8256 40.8617 44.7683C41.8692 44.6893 42.8154 44.2533 43.53 43.5387C44.2446 42.8241 44.6806 41.8779 44.7596 40.8704C44.8178 40.1466 45.0604 39.4498 45.4642 38.8464C45.868 38.243 46.4197 37.753 47.0666 37.4233C47.9659 36.9638 48.672 36.199 49.0583 35.266C49.4447 34.3329 49.4859 33.2928 49.1746 32.3321C48.9504 31.6411 48.9071 30.9041 49.0487 30.1916C49.1902 29.479 49.512 28.8146 49.9834 28.2618C50.6427 27.4934 51.0052 26.5144 51.0052 25.5019C51.0052 24.4894 50.6427 23.5104 49.9834 22.742ZM25.4998 47.0001C21.2468 47.0001 17.0892 45.739 13.5528 43.3762C10.0165 41.0134 7.26016 37.6551 5.63237 33.7258C4.00459 29.7966 3.57847 25.4729 4.40788 21.3015C5.23729 17.1301 7.28499 13.2983 10.2921 10.2906C13.2991 7.28291 17.1305 5.23442 21.3017 4.40415C25.473 3.57389 29.7968 3.99912 33.7263 5.6261C37.6559 7.25307 41.0148 10.0087 43.3783 13.5446C45.7418 17.0805 47.0038 21.2378 47.0047 25.4908C47.0012 31.1936 44.7345 36.6619 40.7025 40.6948C36.6704 44.7276 31.2026 46.9954 25.4998 47.0001Z" fill="white"/>
<path d="M23.5488 32.1006L23.5096 32.1056C23.3222 32.1225 23.1322 32.0848 22.956 31.9958C22.7798 31.9069 22.6227 31.7694 22.4983 31.5952C20.9197 29.3837 18.4044 27.4629 18.3788 27.4381C18.1141 27.2367 17.9234 26.9227 17.8485 26.5651C17.7736 26.2075 17.8208 25.8356 17.9796 25.5312C18.1383 25.2268 18.3957 25.0149 18.6951 24.9421C18.9945 24.8692 19.3114 24.9415 19.5761 25.1428C20.8453 26.1331 22.0401 27.2551 23.1453 28.4948C24.3115 26.421 26.7873 22.5288 30.9093 18.4453C31.0237 18.3318 31.157 18.2471 31.3014 18.1961C31.4458 18.145 31.5986 18.1286 31.751 18.1477C31.9034 18.1668 32.0525 18.2211 32.1897 18.3075C32.3269 18.3939 32.4495 18.5107 32.5506 18.6511C32.6517 18.7916 32.7292 18.9531 32.7788 19.1263C32.8284 19.2995 32.8491 19.4811 32.8396 19.6606C32.8302 19.8402 32.7908 20.0142 32.7237 20.1728C32.6567 20.3314 32.5633 20.4714 32.4488 20.5849C26.8553 26.129 24.4255 31.3736 24.4013 31.427C24.3166 31.6127 24.1954 31.7704 24.0473 31.8874C23.8993 32.0044 23.7285 32.0774 23.5488 32.1006Z" fill="#0077C8" stroke="#0077C8" stroke-width="0.5"/>
</g>
<defs>
<clipPath id="clip0_168_845">
<rect width="51" height="51" fill="white"/>
</clipPath>
</defs>
</svg>
