<svg width="42" height="42" viewBox="0 0 42 42" fill="none" xmlns="http://www.w3.org/2000/svg">
<path d="M16.7224 38.8881C18.8702 38.8881 20.6113 37.147 20.6113 34.9992C20.6113 32.8515 18.8702 31.1104 16.7224 31.1104C14.5746 31.1104 12.8335 32.8515 12.8335 34.9992C12.8335 37.147 14.5746 38.8881 16.7224 38.8881Z" fill="#FAFAFA"/>
<g clip-path="url(#clip0_1185_2863)">
<path d="M9.29199 19.1841V32.0007L20.4362 38.4254L20.5269 38.376V25.4935L9.29199 19.1841Z" fill="#0077C8"/>
<path d="M20.5269 25.4935V38.376L31.5803 32.0007V19.1841L20.5269 25.4935Z" fill="#3D9FE2"/>
<path d="M31.5804 19.1577V19.1906L20.527 25.4918C17.2109 23.6303 12.6163 21.0439 9.30029 19.1824V19.1577L20.4445 12.7329C23.7275 14.6356 28.2891 17.255 31.5804 19.1577Z" fill="#95D3FD"/>
<path d="M16.4432 23.1938L16.4185 23.2103V27.0898L13.3994 25.4013V21.4888L16.4432 23.1938Z" fill="#0282DA"/>
<path d="M27.5792 16.8526L26.7955 17.2809L16.4432 23.195L13.3994 21.49V21.4652L24.5354 15.0981L27.5792 16.8526Z" fill="#4AB0F5"/>
<path d="M39.688 18.047C37.7082 9.85954 30.0368 3.84662 21.689 3.36065V0C19.5278 1.39203 15.1889 4.20081 13.0359 5.59284C15.1971 6.98487 19.536 9.79365 21.689 11.1857V8.11332C21.689 7.76737 26.729 9.02762 27.2817 9.25825C36.7926 13.0719 39.8694 25.8308 33.5838 33.7959C29.2779 39.4135 21.5487 41.4562 14.9167 39.1252C5.45524 35.9128 0.736901 24.653 5.09229 15.6583C-1.69651 28.2607 9.43119 43.5813 23.4625 41.8763C34.9779 40.6819 42.6658 29.0679 39.688 18.047Z" fill="#0077C8"/>
</g>
<defs>
<clipPath id="clip0_1185_2863">
<rect width="42" height="42" fill="white"/>
</clipPath>
</defs>
</svg>
