<svg width="54" height="41" viewBox="0 0 54 41" fill="none" xmlns="http://www.w3.org/2000/svg">
<path d="M53.1382 3.14429V35.4213C53.136 36.644 52.6513 37.8164 51.7895 38.6837L31.2359 18.1301L30.9131 17.6344L53.1382 3.14429Z" fill="#0580D3"/>
<path d="M51.7901 38.6838C50.9228 39.5457 49.7504 40.0304 48.5277 40.0325H4.72326C3.50059 40.0304 2.32819 39.5457 1.46094 38.6838L22.0145 18.1302L22.3027 17.6807L26.6256 20.4357L30.9138 17.6345L31.2365 18.1302L51.7901 38.6838Z" fill="#0077C8"/>
<path d="M22.3028 17.6803L22.0146 18.1298L1.46104 38.6834C0.599181 37.8162 0.114485 36.6438 0.112326 35.4211V5.44962C0.110897 4.98445 0.180877 4.52182 0.319821 4.07788L1.26511 4.29683L22.3028 17.6803Z" fill="#0580D3"/>
<path d="M53.1394 3.14409L30.9144 17.6342L26.6261 20.4353L22.3033 17.6803L1.2656 4.29687L0.320312 4.07782C0.920859 2.1506 2.70521 0.838083 4.72386 0.838623H47.3757C51.9866 0.838623 53.1394 3.14409 53.1394 3.14409Z" fill="#95D3FD"/>
</svg>
