<svg width="48" height="48" viewBox="0 0 48 48" fill="none" xmlns="http://www.w3.org/2000/svg">
<path d="M39.12 10.4996C39.12 10.4996 33 9.41957 31.26 8.81957C28.8009 8.1386 26.5014 6.97612 24.495 5.39957C24.3616 5.2708 24.1853 5.19598 24 5.18957C23.7994 5.18606 23.6055 5.26148 23.46 5.39957C21.473 6.98894 19.1806 8.15302 16.725 8.81957C15 9.41957 9 10.4996 8.88 10.4996C8.70509 10.5279 8.54586 10.6173 8.43054 10.7518C8.31522 10.8864 8.25126 11.0574 8.25 11.2346C8.25 23.3846 8.4 28.9946 12.12 34.7096C15.3 39.5996 23.37 42.5696 23.715 42.7046C23.7993 42.7201 23.8857 42.7201 23.97 42.7046H24.225C24.57 42.5696 32.7 39.5996 35.88 34.7096C39.6 28.9946 39.75 23.3846 39.75 11.2346C39.7487 11.0574 39.6848 10.8864 39.5695 10.7518C39.4541 10.6173 39.2949 10.5279 39.12 10.4996ZM34.62 33.8996C32.01 37.9046 25.35 40.6496 23.97 41.1896C22.59 40.6496 15.99 37.9046 13.38 33.8996C10.08 28.8296 9.765 24.2996 9.75 11.8646C12.2748 11.498 14.7784 10.9973 17.25 10.3646C19.6686 9.57941 21.947 8.41489 24 6.91457C26.0759 8.37473 28.3691 9.49853 30.795 10.2446C33.2667 10.8771 35.7702 11.3778 38.295 11.7446C38.235 24.2396 37.92 28.7696 34.62 33.8396V33.8996Z" fill="#0077C8" stroke="#0077C8" stroke-width="0.5"/>
<path d="M16.9799 24.7051C16.9066 24.6399 16.821 24.59 16.7281 24.5584C16.6352 24.5269 16.537 24.5142 16.4391 24.5212C16.3412 24.5282 16.2458 24.5547 16.1583 24.5991C16.0709 24.6436 15.9932 24.7051 15.9299 24.7801C15.8029 24.9342 15.7413 25.1319 15.7581 25.3309C15.7749 25.5299 15.8689 25.7144 16.0199 25.8451L23.5199 32.2501C23.6517 32.3682 23.823 32.4324 23.9999 32.4301H24.1049C24.2106 32.4148 24.3119 32.3775 24.4024 32.3207C24.4928 32.2638 24.5703 32.1887 24.6299 32.1001L33.3599 19.2901C33.4733 19.125 33.5165 18.9216 33.4799 18.7247C33.4433 18.5278 33.33 18.3535 33.1649 18.2401C32.9998 18.1267 32.7964 18.0836 32.5995 18.1201C32.4026 18.1567 32.2283 18.27 32.1149 18.4351L23.8499 30.5701L16.9799 24.7051Z" fill="#0077C8" stroke="#0077C8" stroke-width="0.5"/>
</svg>
