<svg width="43" height="30" viewBox="0 0 43 30" fill="none" xmlns="http://www.w3.org/2000/svg">
<mask id="path-1-inside-1_248_556" fill="white">
<path d="M38.7 3.19519C35.7115 3.19519 32.723 2.06607 30.1 0C24.854 4.10811 18.146 4.10811 12.9 0C10.277 2.06607 7.2885 3.1952 4.3 3.1952H0V8H4.3C7.2455 8 10.191 7.15916 12.9 5.5976C18.275 8.72072 24.725 8.72072 30.1 5.5976C32.809 7.15916 35.733 8 38.7 8H43V3.19519"/>
</mask>
<path d="M38.7 3.19519C35.7115 3.19519 32.723 2.06607 30.1 0C24.854 4.10811 18.146 4.10811 12.9 0C10.277 2.06607 7.2885 3.1952 4.3 3.1952H0V8H4.3C7.2455 8 10.191 7.15916 12.9 5.5976C18.275 8.72072 24.725 8.72072 30.1 5.5976C32.809 7.15916 35.733 8 38.7 8H43V3.19519" fill="#0077C8"/>
<path d="M30.1 0L31.0282 -1.17836L30.1027 -1.90731L29.1752 -1.18098L30.1 0ZM12.9 0L13.8248 -1.18098L12.8973 -1.90731L11.9718 -1.17836L12.9 0ZM0 3.1952V1.6952H-1.5V3.1952H0ZM0 8H-1.5V9.5H0V8ZM12.9 5.5976L13.6536 4.30064L12.903 3.86451L12.1509 4.29804L12.9 5.5976ZM30.1 5.5976L30.8491 4.29804L30.097 3.86451L29.3464 4.30064L30.1 5.5976ZM43 8V9.5H44.5V8H43ZM38.7 1.69519C36.0964 1.69519 33.4272 0.711268 31.0282 -1.17836L29.1718 1.17836C32.0188 3.42086 35.3266 4.69519 38.7 4.69519V1.69519ZM29.1752 -1.18098C24.4724 2.50177 18.5276 2.50177 13.8248 -1.18098L11.9752 1.18098C17.7644 5.71445 25.2356 5.71445 31.0248 1.18098L29.1752 -1.18098ZM11.9718 -1.17836C9.57285 0.711268 6.90361 1.6952 4.3 1.6952V4.6952C7.6734 4.6952 10.9812 3.42086 13.8282 1.17836L11.9718 -1.17836ZM4.3 1.6952H0V4.6952H4.3V1.6952ZM-1.5 3.1952V8H1.5V3.1952H-1.5ZM0 9.5H4.3V6.5H0V9.5ZM4.3 9.5C7.53353 9.5 10.735 8.57692 13.6491 6.89715L12.1509 4.29804C9.64696 5.7414 6.95748 6.5 4.3 6.5V9.5ZM12.1464 6.89456C17.9873 10.2884 25.0127 10.2884 30.8536 6.89456L29.3464 4.30064C24.4373 7.15304 18.5627 7.15304 13.6536 4.30064L12.1464 6.89456ZM29.3509 6.89715C32.264 8.57639 35.444 9.5 38.7 9.5V6.5C36.022 6.5 33.354 5.74192 30.8491 4.29804L29.3509 6.89715ZM38.7 9.5H43V6.5H38.7V9.5ZM44.5 8V3.19519H41.5V8H44.5Z" fill="#EBF4FB" mask="url(#path-1-inside-1_248_556)"/>
<mask id="path-3-inside-2_248_556" fill="white">
<path d="M38.7 14.1952C35.7115 14.1952 32.723 13.0661 30.1 11C24.854 15.1081 18.146 15.1081 12.9 11C10.277 13.0661 7.2885 14.1952 4.3 14.1952H0V19H4.3C7.2455 19 10.191 18.1592 12.9 16.5976C18.275 19.7207 24.725 19.7207 30.1 16.5976C32.809 18.1592 35.733 19 38.7 19H43V14.1952"/>
</mask>
<path d="M38.7 14.1952C35.7115 14.1952 32.723 13.0661 30.1 11C24.854 15.1081 18.146 15.1081 12.9 11C10.277 13.0661 7.2885 14.1952 4.3 14.1952H0V19H4.3C7.2455 19 10.191 18.1592 12.9 16.5976C18.275 19.7207 24.725 19.7207 30.1 16.5976C32.809 18.1592 35.733 19 38.7 19H43V14.1952" fill="#0077C8"/>
<path d="M30.1 11L31.0282 9.82164L30.1027 9.09269L29.1752 9.81902L30.1 11ZM12.9 11L13.8248 9.81902L12.8973 9.09269L11.9718 9.82164L12.9 11ZM0 14.1952V12.6952H-1.5V14.1952H0ZM0 19H-1.5V20.5H0V19ZM12.9 16.5976L13.6536 15.3006L12.903 14.8645L12.1509 15.298L12.9 16.5976ZM30.1 16.5976L30.8491 15.298L30.097 14.8645L29.3464 15.3006L30.1 16.5976ZM43 19V20.5H44.5V19H43ZM38.7 12.6952C36.0964 12.6952 33.4272 11.7113 31.0282 9.82164L29.1718 12.1784C32.0188 14.4209 35.3266 15.6952 38.7 15.6952V12.6952ZM29.1752 9.81902C24.4724 13.5018 18.5276 13.5018 13.8248 9.81902L11.9752 12.181C17.7644 16.7144 25.2356 16.7144 31.0248 12.181L29.1752 9.81902ZM11.9718 9.82164C9.57285 11.7113 6.90361 12.6952 4.3 12.6952V15.6952C7.6734 15.6952 10.9812 14.4209 13.8282 12.1784L11.9718 9.82164ZM4.3 12.6952H0V15.6952H4.3V12.6952ZM-1.5 14.1952V19H1.5V14.1952H-1.5ZM0 20.5H4.3V17.5H0V20.5ZM4.3 20.5C7.53353 20.5 10.735 19.5769 13.6491 17.8972L12.1509 15.298C9.64696 16.7414 6.95748 17.5 4.3 17.5V20.5ZM12.1464 17.8946C17.9873 21.2884 25.0127 21.2884 30.8536 17.8946L29.3464 15.3006C24.4373 18.153 18.5627 18.153 13.6536 15.3006L12.1464 17.8946ZM29.3509 17.8972C32.264 19.5764 35.444 20.5 38.7 20.5V17.5C36.022 17.5 33.354 16.7419 30.8491 15.298L29.3509 17.8972ZM38.7 20.5H43V17.5H38.7V20.5ZM44.5 19V14.1952H41.5V19H44.5Z" fill="#EBF4FB" mask="url(#path-3-inside-2_248_556)"/>
<mask id="path-5-inside-3_248_556" fill="white">
<path d="M38.7 25.1952C35.7115 25.1952 32.723 24.0661 30.1 22C24.854 26.1081 18.146 26.1081 12.9 22C10.277 24.0661 7.2885 25.1952 4.3 25.1952H0V30H4.3C7.2455 30 10.191 29.1592 12.9 27.5976C18.275 30.7207 24.725 30.7207 30.1 27.5976C32.809 29.1592 35.733 30 38.7 30H43V25.1952"/>
</mask>
<path d="M38.7 25.1952C35.7115 25.1952 32.723 24.0661 30.1 22C24.854 26.1081 18.146 26.1081 12.9 22C10.277 24.0661 7.2885 25.1952 4.3 25.1952H0V30H4.3C7.2455 30 10.191 29.1592 12.9 27.5976C18.275 30.7207 24.725 30.7207 30.1 27.5976C32.809 29.1592 35.733 30 38.7 30H43V25.1952" fill="#0077C8"/>
<path d="M30.1 22L31.0282 20.8216L30.1027 20.0927L29.1752 20.819L30.1 22ZM12.9 22L13.8248 20.819L12.8973 20.0927L11.9718 20.8216L12.9 22ZM0 25.1952V23.6952H-1.5V25.1952H0ZM0 30H-1.5V31.5H0V30ZM12.9 27.5976L13.6536 26.3006L12.903 25.8645L12.1509 26.298L12.9 27.5976ZM30.1 27.5976L30.8491 26.298L30.097 25.8645L29.3464 26.3006L30.1 27.5976ZM43 30V31.5H44.5V30H43ZM38.7 23.6952C36.0964 23.6952 33.4272 22.7113 31.0282 20.8216L29.1718 23.1784C32.0188 25.4209 35.3266 26.6952 38.7 26.6952V23.6952ZM29.1752 20.819C24.4724 24.5018 18.5276 24.5018 13.8248 20.819L11.9752 23.181C17.7644 27.7144 25.2356 27.7144 31.0248 23.181L29.1752 20.819ZM11.9718 20.8216C9.57285 22.7113 6.90361 23.6952 4.3 23.6952V26.6952C7.6734 26.6952 10.9812 25.4209 13.8282 23.1784L11.9718 20.8216ZM4.3 23.6952H0V26.6952H4.3V23.6952ZM-1.5 25.1952V30H1.5V25.1952H-1.5ZM0 31.5H4.3V28.5H0V31.5ZM4.3 31.5C7.53353 31.5 10.735 30.5769 13.6491 28.8972L12.1509 26.298C9.64696 27.7414 6.95748 28.5 4.3 28.5V31.5ZM12.1464 28.8946C17.9873 32.2884 25.0127 32.2884 30.8536 28.8946L29.3464 26.3006C24.4373 29.153 18.5627 29.153 13.6536 26.3006L12.1464 28.8946ZM29.3509 28.8972C32.264 30.5764 35.444 31.5 38.7 31.5V28.5C36.022 28.5 33.354 27.7419 30.8491 26.298L29.3509 28.8972ZM38.7 31.5H43V28.5H38.7V31.5ZM44.5 30V25.1952H41.5V30H44.5Z" fill="#EBF4FB" mask="url(#path-5-inside-3_248_556)"/>
</svg>
