<svg width="11" height="7" viewBox="0 0 11 7" fill="none" xmlns="http://www.w3.org/2000/svg">
<path d="M10.8901 0.661284L10.339 0.110259C10.2656 0.0366758 10.181 0 10.0854 0C9.98999 0 9.90544 0.0366758 9.83201 0.110259L5.50006 4.44198L1.1683 0.110375C1.09483 0.0367917 1.01028 0.000115755 0.914772 0.000115755C0.819222 0.000115755 0.734674 0.0367917 0.661245 0.110375L0.110259 0.661438C0.0366758 0.734867 0 0.819415 0 0.914965C0 1.01044 0.0367916 1.09499 0.110259 1.16841L5.24653 6.3048C5.31996 6.37827 5.40455 6.41498 5.50006 6.41498C5.59557 6.41498 5.68 6.37827 5.75339 6.3048L10.8901 1.16841C10.9635 1.09495 11 1.0104 11 0.914965C11 0.819415 10.9635 0.734867 10.8901 0.661284Z" fill="#787878"/>
</svg>
