<svg width="36" height="42" viewBox="0 0 36 42" fill="none" xmlns="http://www.w3.org/2000/svg">
<path fill-rule="evenodd" clip-rule="evenodd" d="M30.1399 1.4881H5.57492C3.83887 1.4881 2.47133 2.96786 2.60796 4.69851L4.13521 24.0438C4.25743 25.5918 5.5493 26.7857 7.10217 26.7857H28.6126C30.1655 26.7857 31.4574 25.5918 31.5796 24.0438L33.1068 4.69852C33.2435 2.96787 31.8759 1.4881 30.1399 1.4881ZM5.57492 0C2.97086 0 0.919532 2.21965 1.12448 4.81563L2.65173 24.1609C2.83505 26.4829 4.77287 28.2738 7.10217 28.2738H28.6126C30.9419 28.2738 32.8797 26.483 33.063 24.1609L34.5903 4.81564C34.7952 2.21966 32.7439 0 30.1399 0H5.57492Z" fill="#0077C8"/>
<path fill-rule="evenodd" clip-rule="evenodd" d="M15.625 32.7375V38.3179C15.625 39.3452 16.4578 40.178 17.4851 40.178H18.2292C19.2565 40.178 20.0893 39.3452 20.0893 38.3179V32.7375H32.3661C33.3934 32.7375 34.2262 31.9047 34.2262 30.8774V30.1334C34.2262 29.1061 33.3934 28.2733 32.3661 28.2733H3.34821C2.3209 28.2733 1.4881 29.1061 1.4881 30.1334V30.8774C1.4881 31.9047 2.3209 32.7375 3.34821 32.7375H15.625ZM3.34821 34.2256C1.49905 34.2256 0 32.7266 0 30.8774V30.1334C0 28.2842 1.49905 26.7852 3.34821 26.7852H32.3661C34.2152 26.7852 35.7143 28.2842 35.7143 30.1334V30.8774C35.7143 32.7266 34.2152 34.2256 32.3661 34.2256H21.5774V38.3179C21.5774 40.1671 20.0783 41.6661 18.2292 41.6661H17.4851C15.636 41.6661 14.1369 40.1671 14.1369 38.3179V34.2256H3.34821Z" fill="#0077C8"/>
<path d="M8.18433 1.48804C8.18433 1.07712 8.51745 0.743996 8.92837 0.743996C9.3393 0.743996 9.67242 1.07712 9.67242 1.48804V12.6488C9.67242 13.0597 9.3393 13.3928 8.92837 13.3928C8.51745 13.3928 8.18433 13.0597 8.18433 12.6488V1.48804Z" fill="#0077C8"/>
<path d="M14.1367 1.48804C14.1367 1.07712 14.4698 0.743996 14.8808 0.743996C15.2917 0.743996 15.6248 1.07712 15.6248 1.48804V7.44042C15.6248 7.85135 15.2917 8.18447 14.8808 8.18447C14.4698 8.18447 14.1367 7.85135 14.1367 7.44042V1.48804Z" fill="#0077C8"/>
</svg>
