<svg width="54" height="30" viewBox="0 0 54 30" fill="none" xmlns="http://www.w3.org/2000/svg">
<path d="M13.9993 5.00065C13.9993 4.08065 13.2527 3.33398 12.3327 3.33398H2.33268C1.41268 3.33398 0.666016 4.08065 0.666016 5.00065C0.666016 5.92065 1.41268 6.66732 2.33268 6.66732H12.3327C13.2527 6.66732 13.9993 5.92065 13.9993 5.00065ZM12.3327 10.0007H5.66602C4.74602 10.0007 3.99935 10.7473 3.99935 11.6673C3.99935 12.5873 4.74602 13.334 5.66602 13.334H12.3327C13.2527 13.334 13.9993 12.5873 13.9993 11.6673C13.9993 10.7473 13.2527 10.0007 12.3327 10.0007ZM12.3327 16.6673H8.99935C8.07935 16.6673 7.33268 17.414 7.33268 18.334C7.33268 19.254 8.07935 20.0007 8.99935 20.0007H12.3327C13.2527 20.0007 13.9993 19.254 13.9993 18.334C13.9993 17.414 13.2527 16.6673 12.3327 16.6673Z" fill="#0077C8"/>
<path d="M53.7633 15.8094L48.7633 7.47602C48.6156 7.2287 48.4061 7.02401 48.1554 6.88201C47.9047 6.74002 47.6214 6.66559 47.3333 6.66602H35.6667C34.7467 6.66602 34 7.41268 34 8.33268V24.9994C34 25.9194 34.7467 26.666 35.6667 26.666H52.3333C53.2533 26.666 54 25.9194 54 24.9994V16.666C54 16.3627 53.92 16.066 53.7633 15.8094Z" fill="#0077C8"/>
<path d="M40.666 10H46.3893L50.3893 16.6667H40.666V10Z" fill="#FAFAFA"/>
<path d="M35.666 0H12.3327C11.4127 0 10.666 0.746667 10.666 1.66667V25C10.666 25.92 11.4127 26.6667 12.3327 26.6667H37.3327V1.66667C37.3327 0.746667 36.586 0 35.666 0Z" fill="#95D3FD"/>
<path d="M45.6654 28.3327C47.5063 28.3327 48.9987 26.8403 48.9987 24.9993C48.9987 23.1584 47.5063 21.666 45.6654 21.666C43.8244 21.666 42.332 23.1584 42.332 24.9993C42.332 26.8403 43.8244 28.3327 45.6654 28.3327Z" fill="#FAFAFA"/>
<path d="M45.666 30C42.9093 30 40.666 27.7567 40.666 25C40.666 22.2433 42.9093 20 45.666 20C48.4227 20 50.666 22.2433 50.666 25C50.666 27.7567 48.4227 30 45.666 30ZM45.666 23.3333C44.7493 23.3333 43.9993 24.0833 43.9993 25C43.9993 25.9167 44.7493 26.6667 45.666 26.6667C46.5827 26.6667 47.3327 25.9167 47.3327 25C47.3327 24.0833 46.5827 23.3333 45.666 23.3333Z" fill="#2C3131"/>
<path d="M37.3327 26.6667H12.3327C11.4127 26.6667 10.666 25.92 10.666 25V20H37.3327V26.6667Z" fill="#0077C8"/>
<path d="M22.3333 28.3327C24.1743 28.3327 25.6667 26.8403 25.6667 24.9993C25.6667 23.1584 24.1743 21.666 22.3333 21.666C20.4924 21.666 19 23.1584 19 24.9993C19 26.8403 20.4924 28.3327 22.3333 28.3327Z" fill="#FAFAFA"/>
<path d="M22.333 30C19.5763 30 17.333 27.7567 17.333 25C17.333 22.2433 19.5763 20 22.333 20C25.0897 20 27.333 22.2433 27.333 25C27.333 27.7567 25.0897 30 22.333 30ZM22.333 23.3333C21.413 23.3333 20.6663 24.0833 20.6663 25C20.6663 25.9167 21.413 26.6667 22.333 26.6667C23.253 26.6667 23.9997 25.9167 23.9997 25C23.9997 24.0833 23.253 23.3333 22.333 23.3333Z" fill="#2C3131"/>
</svg>
