<svg width="54" height="46" viewBox="0 0 54 46" fill="none" xmlns="http://www.w3.org/2000/svg">
<path d="M47.3565 23.6676V39.1624L26.9727 46.0007V21.1738L32.8788 28.524L47.3565 23.6676Z" fill="#0077C8"/>
<path d="M53.2627 21.6842L47.3565 23.666L32.8788 28.5225L26.9727 21.1723L47.3565 14.334L53.2627 21.6842Z" fill="#87CDFC"/>
<path d="M26.9727 21.1723L21.0665 28.5225L6.5888 23.666L0.682617 21.6842L6.5888 14.334L26.9727 21.1723Z" fill="#95D3FD"/>
<path d="M53.2627 6.97793L47.3565 14.3348L26.9727 7.48987L32.8788 0.139648L53.2627 6.97793ZM26.9727 7.48987L6.5888 14.3348L0.682617 6.97793L21.0665 0.139648L26.9727 7.48987Z" fill="#87CDFC"/>
<path d="M26.9727 21.1738V46.0007L6.58887 39.1624V23.6676L21.0666 28.524L26.9727 21.1738Z" fill="#0286E0"/>
<path d="M47.356 14.3352L26.9727 21.1749V7.49121L47.356 14.3352Z" fill="#0286E0"/>
<path d="M26.9732 7.49121V21.1749L6.58984 14.3352L26.9732 7.49121Z" fill="#0077C8"/>
</svg>
