<svg width="47" height="49" viewBox="0 0 47 49" fill="none" xmlns="http://www.w3.org/2000/svg">
<rect x="27.0295" y="7.1115" width="21.7653" height="31.8831" transform="rotate(30.5909 27.0295 7.1115)" fill="#79C6FB" stroke="white"/>
<rect x="13.0302" y="1.56238" width="28.1977" height="41.1745" transform="rotate(14.1876 13.0302 1.56238)" fill="#49A8E9" stroke="white"/>
<rect y="2.12097" width="31.4815" height="45.4733" rx="1" fill="white"/>
<path d="M18.7254 22.6465L20.3674 25.5079L22.0412 22.6465H24.1534L21.539 26.8789L24.257 31.2707H22.1448L20.3913 28.2897L18.6378 31.2707H16.5176L19.2276 26.8789L16.6212 22.6465H18.7254Z" fill="#0077C8"/>
<path d="M15.8645 27.1345V28.6648H7.49541L7.43164 27.5091L12.4372 19.666H13.9755L12.3096 22.5195L9.43226 27.1345H15.8645ZM14.4139 19.666V31.2712H12.493V19.666H14.4139Z" fill="#0077C8"/>
</svg>
