<svg width="69" height="44" viewBox="0 0 69 44" fill="none" xmlns="http://www.w3.org/2000/svg">
<path d="M16.4395 29.161C17.707 29.1622 18.9536 29.4841 20.0632 30.0968C21.1728 30.7095 22.1094 31.5931 22.7856 32.6652H45.4202C46.2781 31.3076 47.5468 30.2591 49.0418 29.6724V0H0V32.6526H10.0599C10.74 31.5775 11.6824 30.693 12.7983 30.0822C13.9143 29.4714 15.1673 29.1544 16.4395 29.161Z" fill="white"/>
<path d="M0.0019532 35.4984C0.00189384 35.6569 0.0354926 35.8135 0.100527 35.9581C0.16556 36.1026 0.260544 36.2316 0.379195 36.3367C0.634865 36.5586 0.962835 36.6793 1.30135 36.6762H8.93007C8.92727 35.689 9.12254 34.7112 9.50432 33.8008H0.0019532V35.4984Z" fill="white"/>
<path d="M23.937 36.6635H44.2746C44.2725 35.6768 44.4663 34.6994 44.8447 33.7881H23.3711C23.7482 34.6997 23.9405 35.677 23.937 36.6635Z" fill="white"/>
<path d="M65.5621 12.4953C63.4873 10.4205 60.7795 8.63487 58.1849 8.24924C55.5903 7.86361 50.531 7.83008 50.531 7.83008V29.2576C50.9463 29.1859 51.3671 29.1508 51.7885 29.1528C53.7781 29.1539 55.6858 29.9447 57.0927 31.3516C58.4995 32.7584 59.2903 34.6662 59.2915 36.6557H65.5789C66.4027 36.6546 67.1925 36.3272 67.7754 35.7451C68.3583 35.1629 68.6868 34.3736 68.689 33.5498V20.0109C68.689 18.6139 68.4127 17.2307 67.876 15.9409C67.3394 14.6511 66.553 13.4801 65.5621 12.4953ZM66.4926 22.5845C66.4927 22.7484 66.4565 22.9102 66.3864 23.0584C66.3163 23.2065 66.2143 23.3372 66.0875 23.4411C65.9608 23.545 65.8126 23.6194 65.6536 23.659C65.4946 23.6986 65.3287 23.7024 65.1681 23.6702L54.0394 21.4528C53.7886 21.4048 53.563 21.2697 53.4023 21.0714C53.2383 20.8735 53.1493 20.6242 53.1508 20.3672V10.8732C55.0284 10.8762 56.9046 10.9769 58.7717 11.175C60.6747 11.46 62.6657 12.772 64.1873 14.2935C64.9138 15.0174 65.49 15.8778 65.8828 16.8252C66.2755 17.7726 66.4771 18.7883 66.4759 19.8139L66.4926 22.5845Z" fill="white"/>
<path d="M21.7661 33.0849C21.6655 32.9424 21.5691 32.7998 21.4559 32.6657C20.8556 31.9136 20.0936 31.3063 19.2264 30.889C18.3593 30.4716 17.4093 30.2549 16.447 30.2549C15.4846 30.2549 14.5346 30.4716 13.6675 30.889C12.8004 31.3063 12.0383 31.9136 11.438 32.6657C11.3248 32.7998 11.2284 32.9424 11.1278 33.0849C10.9705 33.3087 10.8304 33.5441 10.7086 33.7891C10.2564 34.6799 10.0223 35.6654 10.0254 36.6645C10.0254 38.3654 10.7011 39.9966 11.9038 41.1993C13.1065 42.402 14.7377 43.0777 16.4386 43.0777C18.1394 43.0777 19.7707 42.402 20.9734 41.1993C22.1761 39.9966 22.8517 38.3654 22.8517 36.6645C22.8555 35.6649 22.6198 34.6789 22.1643 33.7891C22.0494 33.5447 21.9163 33.3093 21.7661 33.0849ZM16.4512 39.9843C15.7188 39.987 15.0062 39.7472 14.4245 39.3022C13.8428 38.8573 13.4247 38.2323 13.2357 37.5248C13.0466 36.8173 13.0971 36.067 13.3792 35.3912C13.6614 34.7154 14.1594 34.1521 14.7955 33.7891C15.2972 33.4979 15.8669 33.3446 16.447 33.3446C17.027 33.3446 17.5968 33.4979 18.0985 33.7891C18.7339 34.1517 19.2315 34.7143 19.5139 35.3893C19.7962 36.0643 19.8473 36.8136 19.6593 37.5207C19.4713 38.2278 19.0547 38.8528 18.4744 39.2984C17.8941 39.744 17.1828 39.9851 16.4512 39.9843Z" fill="white"/>
<path d="M51.7831 30.255C51.3609 30.2539 50.9397 30.2947 50.5256 30.3766C50.0122 30.4765 49.5136 30.6413 49.0418 30.867C47.6156 31.5397 46.4877 32.7148 45.874 34.1674C45.2604 35.6199 45.2041 37.2478 45.7161 38.7392C46.2281 40.2307 47.2722 41.4808 48.6486 42.2503C50.025 43.0197 51.6369 43.2544 53.1755 42.9093C54.7141 42.5643 56.0714 41.6637 56.9874 40.3802C57.9033 39.0966 58.3136 37.5203 58.1396 35.953C57.9656 34.3858 57.2195 32.9378 56.0443 31.8865C54.8691 30.8351 53.3474 30.2542 51.7705 30.255H51.7831ZM51.7831 39.9837C51.1265 39.9837 50.4847 39.789 49.9387 39.4243C49.3928 39.0595 48.9673 38.541 48.716 37.9344C48.4648 37.3278 48.399 36.6603 48.5271 36.0163C48.6552 35.3724 48.9714 34.7809 49.4357 34.3166C49.8999 33.8523 50.4915 33.5361 51.1354 33.408C51.7794 33.2799 52.4469 33.3457 53.0535 33.5969C53.6601 33.8482 54.1786 34.2737 54.5434 34.8196C54.9081 35.3656 55.1028 36.0074 55.1028 36.664C55.1028 37.5444 54.7531 38.3888 54.1305 39.0114C53.5079 39.634 52.6635 39.9837 51.7831 39.9837Z" fill="white"/>
<path d="M49.0521 2.80835H0.00195312V3.64248H49.0521V2.80835Z" fill="white"/>
</svg>
