<svg width="51" height="51" viewBox="0 0 51 51" fill="none" xmlns="http://www.w3.org/2000/svg">
<g clip-path="url(#clip0_861_1864)">
<path d="M45.1476 29.2512C47.2195 18.4003 40.1027 7.92427 29.2518 5.85238C18.4009 3.7805 7.92492 10.8973 5.85304 21.7482C3.78116 32.5991 10.898 43.0751 21.7489 45.147C32.5998 47.2189 43.0758 40.1021 45.1476 29.2512Z" fill="#363636"/>
<path d="M49.9831 22.742C49.5118 22.19 49.19 21.5264 49.0484 20.8145C48.9068 20.1027 48.9502 19.3664 49.1744 18.6761C49.4859 17.7148 49.4448 16.674 49.0585 15.7402C48.6722 14.8064 47.966 14.0408 47.0663 13.5805C46.4192 13.2511 45.8673 12.7612 45.4634 12.1577C45.0595 11.5542 44.8171 10.8573 44.7594 10.1334C44.6795 9.12622 44.2432 8.18052 43.5288 7.4661C42.8143 6.75169 41.8686 6.31536 40.8615 6.23547C40.1378 6.17899 39.4408 5.93759 38.8372 5.53442C38.2336 5.13125 37.7437 4.57981 37.4143 3.93295C36.9563 3.03241 36.1916 2.32513 35.2581 1.93861C34.3246 1.55209 33.2838 1.51176 32.3232 1.82489C31.6329 2.04913 30.8966 2.09252 30.1847 1.95092C29.4729 1.80932 28.8093 1.48747 28.2573 1.01614C27.4884 0.359677 26.5106 -0.000976562 25.4996 -0.000976562C24.4886 -0.000976562 23.5108 0.359677 22.7419 1.01614C22.1899 1.48747 21.5263 1.80932 20.8145 1.95092C20.1026 2.09252 19.3663 2.04913 18.676 1.82489C17.7154 1.51176 16.6746 1.55209 15.7411 1.93861C14.8076 2.32513 14.0429 3.03241 13.5849 3.93295C13.2555 4.57981 12.7656 5.13125 12.162 5.53442C11.5584 5.93759 10.8614 6.17899 10.1377 6.23547C9.13056 6.31536 8.18486 6.75169 7.47044 7.4661C6.75603 8.18052 6.3197 9.12622 6.23981 10.1334C6.18206 10.8573 5.93967 11.5542 5.53579 12.1577C5.13191 12.7612 4.58003 13.2511 3.93288 13.5805C3.03324 14.0408 2.32697 14.8064 1.94066 15.7402C1.55436 16.674 1.51329 17.7148 1.82482 18.6761C2.04905 19.3664 2.09244 20.1027 1.95084 20.8145C1.80924 21.5264 1.48739 22.19 1.01606 22.742C0.359087 23.5097 -0.00195312 24.487 -0.00195312 25.4975C-0.00195312 26.508 0.359087 27.4852 1.01606 28.253C1.4874 28.8058 1.80921 29.4702 1.95079 30.1827C2.09237 30.8953 2.049 31.6322 1.82482 32.3233C1.51117 33.2851 1.55118 34.3273 1.93765 35.2623C2.32411 36.1973 3.03165 36.9636 3.93288 37.4233C4.57976 37.753 5.13141 38.243 5.53525 38.8464C5.93908 39.4498 6.18164 40.1466 6.23981 40.8704C6.31882 41.8779 6.75487 42.8241 7.46946 43.5387C8.18405 44.2533 9.13024 44.6893 10.1377 44.7683C10.8612 44.8256 11.5578 45.0674 12.1613 45.4704C12.7648 45.8735 13.2549 46.4245 13.5849 47.0708C14.0436 47.9709 14.8081 48.678 15.7412 49.0652C16.6743 49.4524 17.7148 49.4942 18.676 49.1833C19.3662 48.9578 20.1027 48.9137 20.8148 49.0554C21.5269 49.197 22.1906 49.5196 22.7419 49.9921C23.5116 50.6468 24.4891 51.0064 25.4996 51.0064C26.5101 51.0064 27.4876 50.6468 28.2573 49.9921C28.8086 49.5196 29.4723 49.197 30.1844 49.0554C30.8965 48.9137 31.633 48.9578 32.3232 49.1833C33.2844 49.4942 34.3249 49.4524 35.258 49.0652C36.1911 48.678 36.9556 47.9709 37.4143 47.0708C37.7443 46.4245 38.2344 45.8735 38.8379 45.4704C39.4414 45.0674 40.138 44.8256 40.8615 44.7683C41.869 44.6893 42.8152 44.2533 43.5297 43.5387C44.2443 42.8241 44.6804 41.8779 44.7594 40.8704C44.8176 40.1466 45.0601 39.4498 45.464 38.8464C45.8678 38.243 46.4194 37.753 47.0663 37.4233C47.9656 36.9638 48.6718 36.199 49.0581 35.266C49.4444 34.3329 49.4857 33.2928 49.1744 32.3321C48.9502 31.6411 48.9068 30.9041 49.0484 30.1916C49.19 29.479 49.5118 28.8146 49.9831 28.2618C50.6425 27.4934 51.0049 26.5144 51.0049 25.5019C51.0049 24.4894 50.6425 23.5104 49.9831 22.742ZM25.4996 47.0001C21.2465 47.0001 17.089 45.739 13.5526 43.3762C10.0162 41.0134 7.25991 37.6551 5.63213 33.7258C4.00435 29.7966 3.57822 25.4729 4.40763 21.3015C5.23705 17.1301 7.28475 13.2983 10.2918 10.2906C13.2989 7.28291 17.1303 5.23442 21.3015 4.40415C25.4727 3.57389 29.7965 3.99912 33.7261 5.6261C37.6557 7.25307 41.0146 10.0087 43.3781 13.5446C45.7416 17.0805 47.0036 21.2378 47.0045 25.4908C47.0009 31.1936 44.7343 36.6619 40.7022 40.6948C36.6702 44.7276 31.2024 46.9954 25.4996 47.0001Z" fill="#363636"/>
<path d="M23.5488 32.1005L23.5096 32.1055C23.3222 32.1224 23.1322 32.0847 22.956 31.9957C22.7798 31.9068 22.6227 31.7692 22.4983 31.595C20.9197 29.3835 18.4044 27.4628 18.3788 27.438C18.1141 27.2366 17.9234 26.9226 17.8485 26.565C17.7736 26.2073 17.8208 25.8354 17.9796 25.5311C18.1383 25.2267 18.3957 25.0148 18.6951 24.9419C18.9945 24.8691 19.3114 24.9413 19.5761 25.1427C20.8453 26.133 22.0401 27.255 23.1453 28.4947C24.3115 26.4209 26.7873 22.5287 30.9093 18.4451C31.0237 18.3317 31.157 18.247 31.3014 18.196C31.4458 18.1449 31.5986 18.1285 31.751 18.1476C31.9034 18.1667 32.0525 18.221 32.1897 18.3074C32.3269 18.3938 32.4495 18.5105 32.5506 18.651C32.6517 18.7915 32.7292 18.953 32.7788 19.1262C32.8284 19.2994 32.8491 19.481 32.8396 19.6605C32.8302 19.8401 32.7908 20.0141 32.7237 20.1727C32.6567 20.3313 32.5633 20.4713 32.4488 20.5847C26.8553 26.1288 24.4255 31.3735 24.4013 31.4269C24.3166 31.6126 24.1954 31.7703 24.0473 31.8873C23.8993 32.0042 23.7285 32.0773 23.5488 32.1005Z" fill="white" stroke="white" stroke-width="0.5"/>
</g>
<defs>
<clipPath id="clip0_861_1864">
<rect width="51" height="51" fill="white"/>
</clipPath>
</defs>
</svg>
