<svg width="22" height="22" viewBox="0 0 22 22" fill="none" xmlns="http://www.w3.org/2000/svg">
<mask id="mask0_861_969" style="mask-type:luminance" maskUnits="userSpaceOnUse" x="0" y="0" width="22" height="22">
<path d="M21.2499 21.25V0.750063H0.75V21.25H21.2499Z" fill="white" stroke="white" stroke-width="1.5"/>
</mask>
<g mask="url(#mask0_861_969)">
<path d="M19.6855 5.98868C19.6751 5.75469 19.6683 5.52056 19.6651 5.28636C19.6521 4.40658 18.96 3.68861 18.0815 3.63954C15.3947 3.48945 13.2934 2.59575 11.5186 0.865791C11.2216 0.593542 10.7761 0.593542 10.4791 0.865791C8.70425 2.59575 6.60299 3.48945 3.91621 3.63954C3.03772 3.68861 2.34558 4.40658 2.33252 5.28632C2.32935 5.52053 2.32257 5.75468 2.31219 5.98868C2.21345 11.1734 2.06542 18.2792 10.6892 21.2863C10.7305 21.3007 10.7727 21.3122 10.8156 21.3207L10.816 21.3208C10.9367 21.3449 11.061 21.3449 11.1816 21.3208C11.2247 21.3122 11.2674 21.3006 11.3089 21.2861C19.9076 18.279 19.7842 11.198 19.6855 5.98868Z" stroke="#0077C8" stroke-width="1.5" stroke-miterlimit="10"/>
<path d="M15.8295 11C15.8295 13.6676 13.667 15.8301 10.9995 15.8301C8.33192 15.8301 6.16943 13.6676 6.16943 11C6.16943 8.33244 8.33192 6.16996 10.9995 6.16996C13.667 6.16996 15.8295 8.33244 15.8295 11Z" stroke="#0077C8" stroke-width="1.5" stroke-miterlimit="10"/>
<path d="M13.0269 9.75632L10.0283 12.7549" stroke="#0077C8" stroke-width="1.5" stroke-miterlimit="10" stroke-linecap="round"/>
<path d="M8.8833 11.609L10.0292 12.7549" stroke="#0077C8" stroke-width="1.5" stroke-miterlimit="10" stroke-linecap="round"/>
</g>
</svg>
