<svg width="30" height="20" viewBox="0 0 30 20" fill="none" xmlns="http://www.w3.org/2000/svg">
<path d="M22.3472 12.7274C20.3421 12.7274 18.7108 14.3586 18.7108 16.3638C18.7108 18.3689 20.3421 20.0002 22.3472 20.0002C24.3527 20.0002 25.9836 18.3689 25.9836 16.3638C25.9836 14.3586 24.3523 12.7274 22.3472 12.7274ZM22.3472 18.182C21.3445 18.182 20.529 17.3665 20.529 16.3638C20.529 15.3611 21.3445 14.5456 22.3472 14.5456C23.3499 14.5456 24.1654 15.3611 24.1654 16.3638C24.1654 17.3666 23.3499 18.182 22.3472 18.182ZM9.92299 12.7274C7.91785 12.7274 6.28662 14.3586 6.28662 16.3638C6.28662 18.3689 7.91785 20.0002 9.92299 20.0002C11.9281 20.0002 13.5594 18.3689 13.5594 16.3638C13.5594 14.3586 11.9281 12.7274 9.92299 12.7274ZM9.92299 18.182C8.92028 18.182 8.10481 17.3665 8.10481 16.3638C8.10481 15.3611 8.92028 14.5456 9.92299 14.5456C10.9254 14.5456 11.7412 15.3611 11.7412 16.3638C11.7412 17.3666 10.9257 18.182 9.92299 18.182ZM24.796 2.31898C24.7202 2.16847 24.6042 2.04196 24.4607 1.95357C24.3173 1.86517 24.1521 1.81836 23.9836 1.81836H19.1957V3.63654H23.4229L25.8984 8.56016L27.5233 7.74317L24.796 2.31898Z" fill="#0077C8"/>
<path d="M12.7404 15.4849H19.6192V17.303H12.7404V15.4849ZM7.19492 15.4849H4.04345C3.54131 15.4849 3.13439 15.8918 3.13439 16.3939C3.13439 16.8961 3.54137 17.303 4.04345 17.303H7.19498C7.69712 17.303 8.10404 16.896 8.10404 16.3939C8.10404 15.8918 7.69706 15.4849 7.19492 15.4849ZM29.2162 9.92725L27.428 7.62422C27.3431 7.51473 27.2343 7.42612 27.1098 7.36519C26.9854 7.30425 26.8487 7.27261 26.7101 7.27268H20.104V0.909064C20.104 0.406921 19.6971 0 19.195 0H4.04345C3.54131 0 3.13439 0.406977 3.13439 0.909064C3.13439 1.41115 3.54137 1.81813 4.04345 1.81813H18.2859V8.18175C18.2859 8.68389 18.6928 9.09081 19.1949 9.09081H26.2649L27.5889 10.7963V15.4847H25.0737C24.5716 15.4847 24.1646 15.8917 24.1646 16.3938C24.1646 16.896 24.5716 17.3029 25.0737 17.3029H28.4979C29.0001 17.3029 29.407 16.8959 29.407 16.3938V10.4848C29.407 10.283 29.3398 10.0866 29.2162 9.92725ZM7.13435 10.8788H2.95251C2.45036 10.8788 2.04344 11.2858 2.04344 11.7879C2.04344 12.29 2.45042 12.6969 2.95251 12.6969H7.13429C7.63644 12.6969 8.04336 12.2899 8.04336 11.7879C8.04342 11.2858 7.63644 10.8788 7.13435 10.8788ZM9.22524 7.303H1.46766C0.965571 7.303 0.558594 7.70997 0.558594 8.21212C0.558594 8.71426 0.965571 9.12118 1.46766 9.12118H9.22524C9.72739 9.12118 10.1343 8.7142 10.1343 8.21212C10.1343 7.71003 9.72739 7.303 9.22524 7.303Z" fill="#0077C8"/>
<path d="M10.7096 3.72754H2.95203C2.44989 3.72754 2.04297 4.13452 2.04297 4.6366C2.04297 5.13875 2.44995 5.54567 2.95203 5.54567H10.7096C11.2118 5.54567 11.6187 5.13869 11.6187 4.6366C11.6187 4.13452 11.2118 3.72754 10.7096 3.72754Z" fill="#0077C8"/>
</svg>
